<svg width="86" height="118" viewBox="0 0 86 118" xmlns="http://www.w3.org/2000/svg"><title>6971E502-C2FE-46AC-BF0A-9BC60996E102</title><g fill="#03B3DF" fill-rule="evenodd"><path d="M40.48 117.072H0s5.429-26.84 7.803-29.327c.03-.047.061-.063.093-.094 2.313-1.849 18.427-5.05 18.427-5.05l14.157 34.471zm4.133-30.207l3.892 8.536 10.61-13.169-4.483-6.926-.613-.123.269 1.38-9.675 10.302zm3.458 11.996l-5.633-12.357 9.875-10.515-.613-3.144 4.045.811 5.627 8.694-13.3 16.51zM43.095 9.106c-23.209 0-25 22.382-23.93 30.453.539 4.047 3.768 7.92 3.768 7.92s.849-10.918 8.044-14.034c7.192-3.116 17.701-1.44 22.792-8.995 5.976 8.945 8.634 12.712 9.8 23.03 6.635-6.84 11.894-38.136-20.474-38.374m3.913 55.608c0 1.258-1.752 2.277-3.917 2.277-2.163 0-3.917-1.019-3.917-2.277 0-1.257 1.754-2.276 3.917-2.276 2.165 0 3.917 1.02 3.917 2.276"/><path d="M65.056 48.937c-.512 1.958-1.7 3.328-2.652 3.062-.954-.27-1.31-2.071-.798-4.028.51-1.958 1.698-3.327 2.651-3.06.953.266 1.311 2.07.799 4.026"/><path d="M43.744 65.04v-1.525c13.289 0 15.68-2.719 19.39-13.434l1.503.481c-3.945 11.394-6.99 14.478-20.893 14.478m9.793 37.073h10.447V98.21H53.537z"/><path d="M76.062 117.722h9.467s-5.592-27.584-7.906-29.43c-2.314-1.845-18.428-5.04-18.428-5.04l-5.658 13.773H65.94v2.941h10.122v17.757zM33.92 75.443l8.86 9.102 8.86-9.102a15.208 15.208 0 0 1-.316-1.706l-.157-1.219.049.004c-.11-1.928.102-3.66.32-4.844.077-.412.161-.801.246-1.163-3.035 2.153-6.263 3.39-9.002 3.39-2.738 0-5.967-1.237-9.001-3.39.085.362.168.75.246 1.163a20.83 20.83 0 0 1 .327 4.722l.147-.026-.243 1.291a17.582 17.582 0 0 1-.335 1.778zm8.86 11.71L31.904 75.982l.09-.452c.187-.688.315-1.3.398-1.92l.023-.214c.257-2.136.026-4.116-.21-5.401-.4-2.156-1.01-3.665-1.018-3.679l-.5-1.226h1.724l.296.241c3.309 2.995 7.074 4.784 10.073 4.784 3 0 6.764-1.789 10.073-4.784l.265-.241h1.725l-.47 1.226c-.005.014-.616 1.523-1.017 3.68-.238 1.284-.466 3.262-.21 5.4l.04.33c.084.58.204 1.146.355 1.688l.136.485-.345.418L42.78 87.154z"/><path d="M53.537 102.113h10.447v-1.301H53.537z"/><path d="M66.191 100.812v3.028H52.342v-3.028h-8.598v15.61H74.43v-15.61zM43.417 14.164c-6.87 0-12.42 2.325-16.047 6.726-4.325 5.243-5.69 13.319-3.842 22.733 3.68 18.749 14.99 24.814 19.89 24.814s16.21-6.065 19.888-24.814c1.848-9.414.485-17.488-3.84-22.733-3.628-4.401-9.178-6.726-16.049-6.726m0 56.08c-6.383 0-17.908-7.132-21.665-26.273-1.98-10.1-.522-18.478 4.222-24.23 3.982-4.831 10.014-7.383 17.443-7.383 7.431 0 13.463 2.552 17.445 7.383 4.743 5.754 6.203 14.13 4.22 24.23C61.328 63.112 49.8 70.243 43.418 70.243"/><path d="M18.99 40.846a.782.782 0 0 0-.223.031c-.762.208-.997.516-1.114.76-.447.923-.032 2.926 1.231 5.954 2.643 6.337 4.026 6.52 4.174 6.52a.229.229 0 0 0 .101-.023c-.001 0 .174-.121.39-.728a50.184 50.184 0 0 1-2.745-11.12c-.668-.901-1.309-1.394-1.814-1.394m4.068 15.088c-1.836 0-3.636-2.356-5.84-7.636-1.557-3.732-1.912-5.965-1.19-7.46.415-.854 1.155-1.417 2.268-1.721 1.375-.375 2.799.386 4.11 2.247l.133.188.028.229a48.431 48.431 0 0 0 2.785 11.23l.11.29-.089.3c-.348 1.16-.831 1.866-1.483 2.155a2.026 2.026 0 0 1-.832.178m38.268-2.575c.219.614.395.732.397.732l.094.02c.15 0 1.531-.182 4.175-6.52 1.264-3.027 1.678-5.031 1.232-5.952-.119-.246-.352-.554-1.114-.762-.599-.16-1.272.33-2.037 1.364a50.121 50.121 0 0 1-2.747 11.118m.491 2.575c-.287 0-.566-.06-.832-.178-.65-.29-1.135-.996-1.482-2.156l-.09-.3.11-.29a48.066 48.066 0 0 0 2.785-11.23l.03-.228.131-.188c1.311-1.861 2.724-2.624 4.112-2.246 1.112.303 1.853.866 2.267 1.72.723 1.495.368 3.726-1.19 7.46-2.203 5.281-4.005 7.636-5.841 7.636M43.743 9.174c4.441 0 8.731.858 12.543 2.533.33-.805.516-1.652.516-2.533C56.802 4.107 50.955 0 43.743 0c-7.212 0-13.057 4.107-13.057 9.174 0 .88.187 1.728.515 2.533 3.812-1.675 8.101-2.533 12.542-2.533M27.068 82.232l10.61 13.17 3.89-8.537-9.673-10.302.268-1.38-.613.123-4.482 6.926zM38.11 98.861L24.81 82.35l5.627-8.694 4.045-.811-.613 3.144 9.875 10.515-5.633 12.357z"/></g></svg>