<svg width="112" height="97" viewBox="0 0 112 97" xmlns="http://www.w3.org/2000/svg"><title>C34B8A1F-B554-4C62-B509-C3C4CBE86A5B</title><g fill="#03B3DF" fill-rule="evenodd"><path d="M7.799 3.548a4.396 4.396 0 0 0-4.391 4.39v62.453c0 2.423 1.97 4.39 4.39 4.39h96.011a4.394 4.394 0 0 0 4.391-4.39V7.938a4.395 4.395 0 0 0-4.39-4.39H7.798zm96.01 74.64H7.8c-4.301 0-7.8-3.498-7.8-7.798V7.938C0 3.64 3.5.142 7.8.142h96.01c4.301 0 7.8 3.497 7.8 7.796v62.453c0 4.3-3.499 7.797-7.8 7.797z"/><path d="M80.614 97H29.688c-.865 0-1.588-.672-1.679-1.557-.09-.883.483-1.696 1.329-1.88 14.905-3.253 13.352-16.162 13.279-16.71-.127-.95.518-1.828 1.443-1.96.924-.13 1.775.533 1.904 1.485.016.135 1.325 10.941-7.648 17.146h33.67c-8.97-6.205-7.661-17.011-7.644-17.146.127-.952.978-1.615 1.904-1.484.924.13 1.569 1.01 1.443 1.96-.07.544-1.545 13.474 13.277 16.71.845.183 1.42.996 1.327 1.88-.089.884-.814 1.556-1.679 1.556M27.677 19.547a.476.476 0 0 0-.482.472v35.689c0 .26.216.472.482.472h56.646a.477.477 0 0 0 .482-.472v-35.69a.476.476 0 0 0-.482-.471H27.677zM84.323 59.56H27.677c-2.162 0-3.92-1.73-3.92-3.853v-35.69c0-2.125 1.758-3.851 3.92-3.851h56.646c2.162 0 3.92 1.726 3.92 3.852v35.689c0 2.123-1.758 3.853-3.92 3.853z"/><path d="M32.668 35.06c-.26 0-.47.224-.47.5v8.012c0 .275.21.498.47.498h10.18c.257 0 .469-.223.469-.498v-8.011c0-.277-.212-.501-.47-.501h-10.18zm10.18 12.59h-10.18c-2.107 0-3.82-1.83-3.82-4.078v-8.011c0-2.25 1.713-4.079 3.82-4.079h10.18c2.106 0 3.819 1.83 3.819 4.079v8.011c0 2.248-1.713 4.077-3.82 4.077zm-4.73 5.955h-8.357c-.974 0-1.761-.76-1.761-1.7 0-.941.787-1.703 1.76-1.703h8.358c.972 0 1.76.762 1.76 1.702s-.788 1.701-1.76 1.701m15.271 0h-8.357c-.972 0-1.76-.76-1.76-1.7 0-.941.788-1.703 1.76-1.703h8.357c.972 0 1.763.762 1.763 1.702s-.791 1.701-1.763 1.701m14.426 0h-8.357c-.974 0-1.761-.76-1.761-1.7 0-.941.787-1.703 1.76-1.703h8.358c.97 0 1.76.762 1.76 1.702s-.79 1.701-1.76 1.701m13.575 0h-8.357c-.971 0-1.76-.76-1.76-1.7 0-.941.789-1.703 1.76-1.703h8.356c.974 0 1.763.762 1.763 1.702s-.79 1.701-1.763 1.701m-4.174-25.526H55.997a1.698 1.698 0 0 1-1.694-1.702 1.7 1.7 0 0 1 1.694-1.702h21.218c.935 0 1.694.763 1.694 1.702 0 .941-.76 1.702-1.694 1.702"/></g></svg>